<?xml version="1.0" standalone="no"?><!DOCTYPE svg PUBLIC "-//W3C//DTD SVG 1.1//EN" "http://www.w3.org/Graphics/SVG/1.1/DTD/svg11.dtd"><svg t="1706770153214" class="icon" viewBox="0 0 1217 1024" version="1.1" xmlns="http://www.w3.org/2000/svg" p-id="14768" xmlns:xlink="http://www.w3.org/1999/xlink" width="237.6953125" height="200"><path d="M996.324324 581.189189a55.351351 55.351351 0 0 1 55.351352 55.351352v110.702702h110.702702a55.351351 55.351351 0 0 1 55.212973 51.2L1217.72973 802.594595a55.351351 55.351351 0 0 1-55.351352 55.351351h-110.702702v110.702703a55.351351 55.351351 0 0 1-51.2 55.212973L996.324324 1024a55.351351 55.351351 0 0 1-55.351351-55.351351v-110.702703h-110.702703a55.351351 55.351351 0 0 1-55.212973-51.2L774.918919 802.594595a55.351351 55.351351 0 0 1 55.351351-55.351352h110.702703v-110.702702a55.351351 55.351351 0 0 1 51.2-55.212973L996.324324 581.189189z m83.027027-581.189189a138.378378 138.378378 0 0 1 138.378379 138.378378v385.826595a55.351351 55.351351 0 1 1-110.702703 0V442.810811H110.702703v415.135135a27.675676 27.675676 0 0 0 27.675675 27.675676h498.162163a55.351351 55.351351 0 1 1 0 110.702702H138.378378a138.378378 138.378378 0 0 1-138.378378-138.378378V138.378378a138.378378 138.378378 0 0 1 138.378378-138.378378h940.972973z m0 110.702703H138.378378a27.675676 27.675676 0 0 0-27.675675 27.675675v193.72973h996.324324V138.378378a27.675676 27.675676 0 0 0-27.675676-27.675675zM221.405405 166.054054a55.351351 55.351351 0 1 1 0 110.702703 55.351351 55.351351 0 0 1 0-110.702703z m166.054054 0a55.351351 55.351351 0 1 1 0 110.702703 55.351351 55.351351 0 0 1 0-110.702703z" p-id="14769" fill="#ffffff"></path></svg>